M48
; DRILL file {KiCad 5.1.2-f72e74a~84~ubuntu18.04.1} date seg 08 jul 2019 11:20:15 WEST
; FORMAT={-:-/ absolute / metric / decimal}
; #@! TF.CreationDate,2019-07-08T11:20:15+01:00
; #@! TF.GenerationSoftware,Kicad,Pcbnew,5.1.2-f72e74a~84~ubuntu18.04.1
; #@! TF.FileFunction,Plated,1,2,PTH
FMAT,2
METRIC
T1C0.800
T2C1.000
T3C1.100
T4C1.200
T5C1.300
%
G90
G05
T1
X35.56Y-134.62
X36.83Y-102.87
X43.18Y-121.92
X43.18Y-160.02
X44.45Y-157.48
X45.72Y-139.7
X45.72Y-139.7
X62.23Y-124.46
X64.77Y-139.7
X68.58Y-104.14
X68.58Y-107.95
X78.74Y-121.92
X78.74Y-146.05
X92.71Y-104.14
X92.71Y-104.14
X95.25Y-104.14
X95.25Y-125.73
X97.79Y-104.14
X100.33Y-104.14
X102.87Y-104.14
X143.51Y-102.87
X146.05Y-105.41
X151.13Y-138.43
X91.44Y-139.7
X128.27Y-118.11
X128.27Y-120.65
X128.27Y-123.19
X128.27Y-125.73
X128.27Y-128.27
X128.27Y-130.81
X128.27Y-133.35
X135.89Y-118.11
X135.89Y-120.65
X135.89Y-123.19
X135.89Y-125.73
X135.89Y-128.27
X135.89Y-130.81
X135.89Y-133.35
T2
X45.72Y-125.73
X45.72Y-133.35
X143.51Y-133.35
X151.13Y-133.35
X93.98Y-119.38
X101.6Y-119.38
X113.03Y-138.43
X113.03Y-146.05
X151.13Y-119.38
X151.13Y-127.0
X145.415Y-164.465
X153.035Y-164.465
X113.03Y-133.35
X120.65Y-133.35
X151.13Y-146.05
X24.13Y-171.45
X26.67Y-171.45
X29.21Y-171.45
X31.75Y-171.45
X34.29Y-171.45
X36.83Y-171.45
X39.37Y-171.45
X41.91Y-171.45
X44.45Y-171.45
X46.99Y-171.45
X49.53Y-171.45
X52.07Y-171.45
X54.61Y-171.45
X57.15Y-171.45
X59.69Y-171.45
X62.23Y-171.45
X64.77Y-171.45
X50.8Y-95.885
X53.34Y-95.885
X91.44Y-124.46
X91.44Y-132.08
X124.46Y-95.885
X127.0Y-95.885
X129.54Y-95.885
X132.08Y-95.885
X161.845Y-95.885
X91.44Y-147.32
X60.96Y-109.22
X60.96Y-116.84
X156.21Y-119.38
X156.21Y-127.0
X22.86Y-115.57
X30.48Y-115.57
X103.505Y-164.465
X111.125Y-164.465
X92.71Y-95.885
X95.25Y-95.885
X97.79Y-95.885
X100.33Y-95.885
X102.87Y-95.885
X162.56Y-164.465
X170.18Y-164.465
X143.51Y-114.3
X151.13Y-114.3
X162.56Y-119.38
X170.18Y-119.38
X140.97Y-95.885
X143.51Y-95.885
X146.05Y-95.885
X148.59Y-95.885
X151.13Y-95.885
X153.67Y-95.885
X68.58Y-124.46
X68.58Y-127.0
X68.58Y-129.54
X68.58Y-132.08
X68.58Y-134.62
X68.58Y-137.16
X68.58Y-139.7
X68.58Y-142.24
X76.2Y-124.46
X76.2Y-127.0
X76.2Y-129.54
X76.2Y-132.08
X76.2Y-134.62
X76.2Y-137.16
X76.2Y-139.7
X76.2Y-142.24
X39.37Y-124.46
X39.37Y-127.0
X39.37Y-129.54
X39.37Y-132.08
X39.37Y-134.62
X39.37Y-137.16
X39.37Y-139.7
X39.37Y-142.24
X39.37Y-144.78
X95.25Y-138.43
X102.87Y-138.43
X156.21Y-133.35
X156.21Y-140.97
X59.69Y-95.885
X62.23Y-95.885
X107.95Y-138.43
X107.95Y-146.05
X32.385Y-95.885
X113.03Y-114.3
X120.65Y-114.3
X107.95Y-119.38
X107.95Y-127.0
X71.12Y-95.885
X73.66Y-95.885
X76.2Y-95.885
X78.74Y-95.885
X41.91Y-95.885
X117.475Y-164.465
X125.095Y-164.465
X162.56Y-133.35
X170.18Y-133.35
X113.03Y-119.38
X113.03Y-127.0
X131.445Y-164.465
X139.065Y-164.465
X166.495Y-95.885
X64.77Y-109.22
X64.77Y-116.84
X36.83Y-95.885
X22.86Y-111.76
X30.48Y-111.76
X22.86Y-95.885
X25.4Y-95.885
X27.94Y-95.885
X22.86Y-119.38
X30.48Y-119.38
X59.69Y-154.94
X59.69Y-162.56
T3
X145.9Y-170.76
X145.9Y-175.26
X152.4Y-170.76
X152.4Y-175.26
X117.96Y-170.76
X117.96Y-175.26
X124.46Y-170.76
X124.46Y-175.26
X59.69Y-139.7
X59.69Y-147.32
X131.93Y-170.76
X131.93Y-175.26
X138.43Y-170.76
X138.43Y-175.26
X103.99Y-170.76
X103.99Y-175.26
X110.49Y-170.76
X110.49Y-175.26
X163.68Y-170.76
X163.68Y-175.26
X170.18Y-170.76
X170.18Y-175.26
X52.07Y-119.38
X52.07Y-127.0
X59.69Y-127.0
X59.69Y-134.62
X52.07Y-132.08
X52.07Y-139.7
T4
X31.75Y-128.05
X31.75Y-146.05
X22.86Y-128.05
X22.86Y-146.05
T5
X26.75Y-157.48
X29.25Y-162.48
X31.75Y-157.48
T0
M30
